<mxfile host="Electron" modified="2024-05-17T14:46:49.219Z" agent="Mozilla/5.0 (X11; Linux x86_64) AppleWebKit/537.36 (KHTML, like Gecko) draw.io/24.4.0 Chrome/120.0.6099.109 Electron/28.1.0 Safari/537.36" etag="lfOdCma1MR88yR_fLBSq" version="24.4.0" type="device" pages="3">
  <diagram name="System Context" id="is95IW241-Wx3w6ifzKU">
    <mxGraphModel dx="1195" dy="698" grid="1" gridSize="10" guides="1" tooltips="1" connect="1" arrows="1" fold="1" page="1" pageScale="1" pageWidth="827" pageHeight="1169" math="0" shadow="0">
      <root>
        <mxCell id="0" />
        <mxCell id="1" parent="0" />
        <mxCell id="_yok0Nk1rddFSb1OU66M-10" style="edgeStyle=orthogonalEdgeStyle;rounded=0;orthogonalLoop=1;jettySize=auto;html=1;exitX=0.5;exitY=1;exitDx=0;exitDy=0;entryX=0.5;entryY=0;entryDx=0;entryDy=0;dashed=1;" edge="1" parent="1" source="_yok0Nk1rddFSb1OU66M-3" target="_yok0Nk1rddFSb1OU66M-9">
          <mxGeometry relative="1" as="geometry" />
        </mxCell>
        <mxCell id="_yok0Nk1rddFSb1OU66M-3" value="To Do Application" style="rounded=1;whiteSpace=wrap;html=1;fillColor=#BAB6B6;fontColor=#ffffff;strokeColor=#A9A6A6;gradientColor=none;" vertex="1" parent="1">
          <mxGeometry x="226" y="494" width="350" height="130" as="geometry" />
        </mxCell>
        <mxCell id="_yok0Nk1rddFSb1OU66M-6" value="" style="edgeStyle=orthogonalEdgeStyle;rounded=0;orthogonalLoop=1;jettySize=auto;html=1;entryX=0.5;entryY=0;entryDx=0;entryDy=0;dashed=1;" edge="1" parent="1" source="_yok0Nk1rddFSb1OU66M-4" target="_yok0Nk1rddFSb1OU66M-7">
          <mxGeometry relative="1" as="geometry">
            <mxPoint x="401" y="265" as="sourcePoint" />
          </mxGeometry>
        </mxCell>
        <mxCell id="_yok0Nk1rddFSb1OU66M-4" value="User" style="shape=umlActor;verticalLabelPosition=top;verticalAlign=bottom;html=1;outlineConnect=0;labelPosition=center;align=center;" vertex="1" parent="1">
          <mxGeometry x="374" y="100" width="54" height="120" as="geometry" />
        </mxCell>
        <mxCell id="_yok0Nk1rddFSb1OU66M-8" style="edgeStyle=orthogonalEdgeStyle;rounded=0;orthogonalLoop=1;jettySize=auto;html=1;exitX=0.5;exitY=1;exitDx=0;exitDy=0;dashed=1;" edge="1" parent="1" source="_yok0Nk1rddFSb1OU66M-7" target="_yok0Nk1rddFSb1OU66M-3">
          <mxGeometry relative="1" as="geometry" />
        </mxCell>
        <mxCell id="_yok0Nk1rddFSb1OU66M-7" value="Web Browser&lt;div&gt;(Client)&lt;/div&gt;" style="rounded=1;whiteSpace=wrap;html=1;" vertex="1" parent="1">
          <mxGeometry x="261" y="315" width="280" height="90" as="geometry" />
        </mxCell>
        <mxCell id="_yok0Nk1rddFSb1OU66M-9" value="Trello API&amp;nbsp;" style="rounded=1;whiteSpace=wrap;html=1;fillColor=#A9C4EB;" vertex="1" parent="1">
          <mxGeometry x="241" y="744" width="320" height="100" as="geometry" />
        </mxCell>
        <mxCell id="_yok0Nk1rddFSb1OU66M-11" value="Talk over HTTP" style="text;html=1;align=center;verticalAlign=middle;whiteSpace=wrap;rounded=0;fillColor=default;" vertex="1" parent="1">
          <mxGeometry x="340" y="424" width="110" height="20" as="geometry" />
        </mxCell>
        <mxCell id="_yok0Nk1rddFSb1OU66M-14" value="via HTTP API&amp;nbsp;" style="text;html=1;align=center;verticalAlign=middle;whiteSpace=wrap;rounded=0;fillColor=default;" vertex="1" parent="1">
          <mxGeometry x="346" y="674" width="110" height="20" as="geometry" />
        </mxCell>
      </root>
    </mxGraphModel>
  </diagram>
  <diagram id="lAYEBw9NbdrB146gcvQz" name="Container">
    <mxGraphModel dx="1434" dy="838" grid="1" gridSize="10" guides="1" tooltips="1" connect="1" arrows="1" fold="1" page="1" pageScale="1" pageWidth="827" pageHeight="1169" math="0" shadow="0">
      <root>
        <mxCell id="0" />
        <mxCell id="1" parent="0" />
        <mxCell id="PMglRlrlXG5z3h6P0Yl3-2" value="" style="rounded=1;whiteSpace=wrap;html=1;fillColor=#BAB6B6;fontColor=#ffffff;strokeColor=#2D7600;gradientColor=none;" vertex="1" parent="1">
          <mxGeometry x="179" y="540" width="570" height="310" as="geometry" />
        </mxCell>
        <mxCell id="PMglRlrlXG5z3h6P0Yl3-1" style="edgeStyle=orthogonalEdgeStyle;rounded=0;orthogonalLoop=1;jettySize=auto;html=1;entryX=0.5;entryY=0;entryDx=0;entryDy=0;dashed=1;" edge="1" parent="1" source="GvYew7l9k-ee_fy8n1gJ-3" target="PMglRlrlXG5z3h6P0Yl3-7">
          <mxGeometry relative="1" as="geometry">
            <mxPoint x="464" y="880" as="sourcePoint" />
          </mxGeometry>
        </mxCell>
        <mxCell id="PMglRlrlXG5z3h6P0Yl3-5" style="edgeStyle=orthogonalEdgeStyle;rounded=0;orthogonalLoop=1;jettySize=auto;html=1;exitX=0.5;exitY=1;exitDx=0;exitDy=0;dashed=1;entryX=0.5;entryY=0;entryDx=0;entryDy=0;" edge="1" parent="1" source="PMglRlrlXG5z3h6P0Yl3-6" target="GvYew7l9k-ee_fy8n1gJ-2">
          <mxGeometry relative="1" as="geometry" />
        </mxCell>
        <mxCell id="PMglRlrlXG5z3h6P0Yl3-6" value="Web Browser&lt;div&gt;(Client)&lt;/div&gt;" style="rounded=1;whiteSpace=wrap;html=1;" vertex="1" parent="1">
          <mxGeometry x="334" y="360" width="260" height="110" as="geometry" />
        </mxCell>
        <mxCell id="PMglRlrlXG5z3h6P0Yl3-7" value="Trello API&amp;nbsp;" style="rounded=1;whiteSpace=wrap;html=1;fillColor=#A9C4EB;" vertex="1" parent="1">
          <mxGeometry x="315" y="902" width="300" height="105" as="geometry" />
        </mxCell>
        <mxCell id="PMglRlrlXG5z3h6P0Yl3-8" value="Talk over HTTP" style="text;html=1;align=center;verticalAlign=middle;whiteSpace=wrap;rounded=0;fillColor=default;" vertex="1" parent="1">
          <mxGeometry x="414" y="490" width="110" height="20" as="geometry" />
        </mxCell>
        <mxCell id="PMglRlrlXG5z3h6P0Yl3-9" value="via HTTP API&amp;nbsp;" style="text;html=1;align=center;verticalAlign=middle;whiteSpace=wrap;rounded=0;fillColor=default;" vertex="1" parent="1">
          <mxGeometry x="410" y="800" width="110" height="20" as="geometry" />
        </mxCell>
        <mxCell id="GvYew7l9k-ee_fy8n1gJ-10" style="edgeStyle=orthogonalEdgeStyle;rounded=0;orthogonalLoop=1;jettySize=auto;html=1;exitX=0.5;exitY=1;exitDx=0;exitDy=0;dashed=1;" edge="1" parent="1" source="GvYew7l9k-ee_fy8n1gJ-2" target="GvYew7l9k-ee_fy8n1gJ-3">
          <mxGeometry relative="1" as="geometry" />
        </mxCell>
        <mxCell id="GvYew7l9k-ee_fy8n1gJ-2" value="Flask Web Server&amp;nbsp;" style="rounded=1;whiteSpace=wrap;html=1;fillColor=#FFD966;" vertex="1" parent="1">
          <mxGeometry x="404" y="580" width="120" height="60" as="geometry" />
        </mxCell>
        <mxCell id="GvYew7l9k-ee_fy8n1gJ-3" value="To Do Application Code&lt;div&gt;(Python WSGI App)&lt;/div&gt;" style="rounded=1;whiteSpace=wrap;html=1;fillColor=#B9E0A5;" vertex="1" parent="1">
          <mxGeometry x="404" y="720" width="120" height="60" as="geometry" />
        </mxCell>
        <mxCell id="GvYew7l9k-ee_fy8n1gJ-9" value="Passes Request To" style="text;html=1;align=center;verticalAlign=middle;whiteSpace=wrap;rounded=0;fillColor=default;" vertex="1" parent="1">
          <mxGeometry x="410" y="660" width="110" height="20" as="geometry" />
        </mxCell>
        <mxCell id="57Iew836tS1JBgX2nTdu-1" value="&lt;font style=&quot;font-size: 12px;&quot;&gt;To Do Application&lt;/font&gt;" style="text;whiteSpace=wrap;html=1;align=center;" vertex="1" parent="1">
          <mxGeometry x="70" y="530" width="110" height="30" as="geometry" />
        </mxCell>
      </root>
    </mxGraphModel>
  </diagram>
  <diagram id="X1j0ucIkZCxWSRaUg0kQ" name="Component">
    <mxGraphModel dx="1434" dy="838" grid="1" gridSize="10" guides="1" tooltips="1" connect="1" arrows="1" fold="1" page="1" pageScale="1" pageWidth="827" pageHeight="1169" math="0" shadow="0">
      <root>
        <mxCell id="0" />
        <mxCell id="1" parent="0" />
        <mxCell id="OjdMiCB10aGvuN2c26i_-3" value="Trello API&amp;nbsp;" style="rounded=1;whiteSpace=wrap;html=1;fillColor=#A9C4EB;" vertex="1" parent="1">
          <mxGeometry x="290" y="920" width="300" height="105" as="geometry" />
        </mxCell>
        <mxCell id="OjdMiCB10aGvuN2c26i_-7" value="" style="rounded=1;whiteSpace=wrap;html=1;fillColor=#BAB6B6;" vertex="1" parent="1">
          <mxGeometry x="146" y="400" width="590" height="330" as="geometry" />
        </mxCell>
        <mxCell id="OjdMiCB10aGvuN2c26i_-6" value="Flask Web Server&amp;nbsp;" style="rounded=1;whiteSpace=wrap;html=1;fillColor=#FFD966;" vertex="1" parent="1">
          <mxGeometry x="380" y="110" width="120" height="60" as="geometry" />
        </mxCell>
        <mxCell id="OjdMiCB10aGvuN2c26i_-5" style="edgeStyle=orthogonalEdgeStyle;rounded=0;orthogonalLoop=1;jettySize=auto;html=1;exitX=0.5;exitY=1;exitDx=0;exitDy=0;dashed=1;" edge="1" parent="1" source="OjdMiCB10aGvuN2c26i_-6" target="l1F0v9ypBIxBqJv8Qihz-1">
          <mxGeometry relative="1" as="geometry" />
        </mxCell>
        <mxCell id="OjdMiCB10aGvuN2c26i_-8" value="Passes Request To" style="text;html=1;align=center;verticalAlign=middle;whiteSpace=wrap;rounded=0;fillColor=default;" vertex="1" parent="1">
          <mxGeometry x="385" y="200" width="110" height="20" as="geometry" />
        </mxCell>
        <mxCell id="l1F0v9ypBIxBqJv8Qihz-1" value="Webserver Routes&lt;div&gt;(app.py)&lt;/div&gt;" style="rounded=1;whiteSpace=wrap;html=1;" vertex="1" parent="1">
          <mxGeometry x="380" y="470" width="120" height="60" as="geometry" />
        </mxCell>
        <mxCell id="9CckK-ygA_3GsUJGKOT5-1" value="&lt;span style=&quot;color: rgb(0, 0, 0); font-family: Helvetica; font-size: 12px; font-style: normal; font-variant-ligatures: normal; font-variant-caps: normal; font-weight: 400; letter-spacing: normal; orphans: 2; text-align: center; text-indent: 0px; text-transform: none; widows: 2; word-spacing: 0px; -webkit-text-stroke-width: 0px; white-space: normal; background-color: rgb(251, 251, 251); text-decoration-thickness: initial; text-decoration-style: initial; text-decoration-color: initial; display: inline !important; float: none;&quot;&gt;To Do Application Code&lt;/span&gt;&lt;div style=&quot;forced-color-adjust: none; color: rgb(0, 0, 0); font-family: Helvetica; font-size: 12px; font-style: normal; font-variant-ligatures: normal; font-variant-caps: normal; font-weight: 400; letter-spacing: normal; orphans: 2; text-align: center; text-indent: 0px; text-transform: none; widows: 2; word-spacing: 0px; -webkit-text-stroke-width: 0px; white-space: normal; background-color: rgb(251, 251, 251); text-decoration-thickness: initial; text-decoration-style: initial; text-decoration-color: initial;&quot;&gt;(Python WSGI App)&lt;/div&gt;" style="text;whiteSpace=wrap;html=1;" vertex="1" parent="1">
          <mxGeometry x="20" y="360" width="130" height="50" as="geometry" />
        </mxCell>
        <mxCell id="EHFWmOx9ZyzJFtTSfKnS-5" style="edgeStyle=orthogonalEdgeStyle;rounded=0;orthogonalLoop=1;jettySize=auto;html=1;exitX=1;exitY=0.5;exitDx=0;exitDy=0;entryX=0;entryY=0.5;entryDx=0;entryDy=0;dashed=1;" edge="1" parent="1" source="EHFWmOx9ZyzJFtTSfKnS-2" target="l1F0v9ypBIxBqJv8Qihz-1">
          <mxGeometry relative="1" as="geometry" />
        </mxCell>
        <mxCell id="EHFWmOx9ZyzJFtTSfKnS-2" value="HTML Templates" style="rounded=1;whiteSpace=wrap;html=1;" vertex="1" parent="1">
          <mxGeometry x="210" y="470" width="110" height="60" as="geometry" />
        </mxCell>
        <mxCell id="EHFWmOx9ZyzJFtTSfKnS-8" style="edgeStyle=orthogonalEdgeStyle;rounded=0;orthogonalLoop=1;jettySize=auto;html=1;exitX=0;exitY=0.25;exitDx=0;exitDy=0;entryX=1;entryY=0.5;entryDx=0;entryDy=0;dashed=1;" edge="1" parent="1" source="EHFWmOx9ZyzJFtTSfKnS-3" target="l1F0v9ypBIxBqJv8Qihz-1">
          <mxGeometry relative="1" as="geometry" />
        </mxCell>
        <mxCell id="EHFWmOx9ZyzJFtTSfKnS-10" style="edgeStyle=orthogonalEdgeStyle;rounded=0;orthogonalLoop=1;jettySize=auto;html=1;exitX=0;exitY=0.75;exitDx=0;exitDy=0;entryX=1;entryY=0.5;entryDx=0;entryDy=0;dashed=1;" edge="1" parent="1" source="EHFWmOx9ZyzJFtTSfKnS-3" target="EHFWmOx9ZyzJFtTSfKnS-4">
          <mxGeometry relative="1" as="geometry" />
        </mxCell>
        <mxCell id="EHFWmOx9ZyzJFtTSfKnS-3" value="Data Classes&amp;nbsp;&lt;div&gt;(Item View Model)&lt;/div&gt;" style="rounded=1;whiteSpace=wrap;html=1;" vertex="1" parent="1">
          <mxGeometry x="600" y="530" width="120" height="60" as="geometry" />
        </mxCell>
        <mxCell id="EHFWmOx9ZyzJFtTSfKnS-11" style="edgeStyle=orthogonalEdgeStyle;rounded=0;orthogonalLoop=1;jettySize=auto;html=1;exitX=0.5;exitY=1;exitDx=0;exitDy=0;dashed=1;" edge="1" parent="1" source="EHFWmOx9ZyzJFtTSfKnS-4" target="OjdMiCB10aGvuN2c26i_-3">
          <mxGeometry relative="1" as="geometry" />
        </mxCell>
        <mxCell id="EHFWmOx9ZyzJFtTSfKnS-4" value="Trello Client" style="rounded=1;whiteSpace=wrap;html=1;" vertex="1" parent="1">
          <mxGeometry x="380" y="600" width="120" height="60" as="geometry" />
        </mxCell>
        <mxCell id="OjdMiCB10aGvuN2c26i_-4" value="via HTTP API&amp;nbsp;" style="text;html=1;align=center;verticalAlign=middle;whiteSpace=wrap;rounded=0;fillColor=default;" vertex="1" parent="1">
          <mxGeometry x="386" y="838" width="110" height="20" as="geometry" />
        </mxCell>
      </root>
    </mxGraphModel>
  </diagram>
</mxfile>
